# File created by Blade
# Date/Time:  Tue Jan 27 18:35:03 2015
# Frame Rate: 120.000 fps
#------------------------------------------------------
:FULLY-SPECIFIED
:DEGREES
2094
root -5.037323 31.977987 -0.785629 8.231418 8.640410 -2.894429
Spine -3.813397 -11.054047 -3.357580
Head -3.156282 4.366494 16.067855
LeftShoulder -15.516518 16.140869 13.593007
LeftArm 21.888627 -28.940251 -80.801570
LeftForeArm 123.029485 0.000000 132.750041
LeftHand 7.124732 -0.000000 5.192398
LeftHandThumb1 -26.253704 0.000000 33.147579
RightShoulder -15.245585 -7.969809 -9.115866
RightArm 1.212531 -32.172293 88.051022
RightForeArm -23.571341 -0.000000 30.089895
RightHand -14.744638 -0.000000 10.281344
RightHandThumb1 -24.326973 -0.000000 -32.862282
LeftUpLeg -8.889416 2.306977 -1.635226
LeftLeg 11.580227 -0.000000 -0.000000
LeftFoot -23.786729 19.943477 -19.200033
LeftToeBase 9.636751 -0.000000 -0.000000
RightUpLeg -9.123507 0.157205 1.251670
RightLeg 9.277287 -0.000000 -0.000000
RightFoot -12.995473 -6.323431 10.411350
RightToeBase -0.379625 -0.000000 0.000000
2095
root -5.047054 31.974478 -0.776963 8.240884 8.583405 -2.802596
Spine -3.838029 -11.041084 -3.411680
Head -3.058563 4.380330 16.022390
LeftShoulder -15.542503 16.145543 13.558421
LeftArm 21.907703 -28.902721 -80.800033
LeftForeArm 123.107494 0.000000 132.709893
LeftHand 7.123604 -0.000000 5.179030
LeftHandThumb1 -26.253704 0.000000 33.147579
RightShoulder -15.264231 -7.989165 -9.108101
RightArm 1.208685 -32.182340 88.069611
RightForeArm -23.399978 -0.000000 30.010100
RightHand -14.698286 0.000000 10.112197
RightHandThumb1 -24.326973 -0.000000 -32.862282
LeftUpLeg -8.822883 2.297196 -1.711021
LeftLeg 11.488439 -0.000000 -0.000000
LeftFoot -23.780960 20.000657 -19.229210
LeftToeBase 9.622632 -0.000000 -0.000000
RightUpLeg -9.142325 0.024828 1.209326
RightLeg 9.357026 -0.000000 -0.000000
RightFoot -13.009731 -6.269021 10.042208
RightToeBase -0.656986 -0.000000 0.000000
2096
root -5.060643 31.971399 -0.768431 8.247512 8.532718 -2.734011
Spine -3.862910 -11.039683 -3.455068
Head -2.948840 4.397360 15.995248
LeftShoulder -15.552065 16.157554 13.544357
LeftArm 21.893395 -28.875024 -80.789011
LeftForeArm 123.169719 -0.000000 132.685591
LeftHand 7.051868 0.000000 5.167222
LeftHandThumb1 -26.253704 0.000000 33.147579
RightShoulder -15.280259 -8.012895 -9.083364
RightArm 1.218709 -32.153039 88.078010
RightForeArm -23.294034 0.000000 29.936940
RightHand -14.682289 -0.000000 10.129455
RightHandThumb1 -24.326973 -0.000000 -32.862282
LeftUpLeg -8.759546 2.297705 -1.752674
LeftLeg 11.397037 -0.000000 -0.000000
LeftFoot -23.769184 20.034135 -19.244278
LeftToeBase 9.630349 -0.000000 -0.000000
RightUpLeg -9.107945 0.004492 1.178571
RightLeg 9.301372 -0.000000 -0.000000
RightFoot -13.136974 -6.247868 10.167575
RightToeBase -0.329905 -0.000000 0.000000
2097
root -5.077882 31.968673 -0.759162 8.264721 8.484743 -2.676093
Spine -3.908592 -11.044727 -3.482409
Head -2.816908 4.415859 15.945748
LeftShoulder -15.549884 16.148606 13.516645
LeftArm 21.861675 -28.912471 -80.740614
LeftForeArm 123.280458 -0.000000 132.657219
LeftHand 7.060536 0.000000 5.237738
LeftHandThumb1 -26.253704 0.000000 33.147579
RightShoulder -15.284976 -7.992999 -9.062353
RightArm 1.155685 -32.116120 88.116700
RightForeArm -23.253517 -0.000000 29.873042
RightHand -14.696859 -0.000000 10.092708
RightHandThumb1 -24.326973 -0.000000 -32.862282
LeftUpLeg -8.711493 2.350094 -1.783469
LeftLeg 11.309387 -0.000000 -0.000000
LeftFoot -23.752802 20.023597 -19.265176
LeftToeBase 9.636131 -0.000000 -0.000000
RightUpLeg -9.073386 0.037766 1.157707
RightLeg 9.227086 -0.000000 -0.000000
RightFoot -13.203088 -6.273721 10.161209
RightToeBase -0.243989 -0.000000 0.000000
2098
root -5.094819 31.965796 -0.749422 8.290412 8.419321 -2.613622
Spine -3.964241 -11.016073 -3.523831
Head -2.702344 4.411076 15.903308
LeftShoulder -15.550898 16.185628 13.497778
LeftArm 21.882353 -28.923206 -80.755168
LeftForeArm 123.317280 -0.000000 132.637058
LeftHand 7.111654 -0.000000 5.205431
LeftHandThumb1 -26.253704 0.000000 33.147579
RightShoulder -15.327856 -8.016101 -9.032878
RightArm 1.137719 -32.038731 88.130493
RightForeArm -23.434392 -0.000000 29.842437
RightHand -14.565516 -0.000000 10.365283
RightHandThumb1 -24.326973 -0.000000 -32.862282
LeftUpLeg -8.669286 2.404174 -1.813273
LeftLeg 11.227152 -0.000000 -0.000000
LeftFoot -23.737585 19.979168 -19.307920
LeftToeBase 9.688400 -0.000000 -0.000000
RightUpLeg -9.043715 0.069728 1.133286
RightLeg 9.148968 -0.000000 -0.000000
RightFoot -13.241182 -6.298895 10.047388
RightToeBase -0.181777 -0.000000 0.000000
2099
root -5.109941 31.962677 -0.738908 8.296299 8.375966 -2.550860
Spine -3.994807 -11.030188 -3.564640
Head -2.578524 4.436346 15.873705
LeftShoulder -15.578885 16.226135 13.472041
LeftArm 21.909451 -28.909677 -80.767233
LeftForeArm 123.351169 -0.000000 132.626029
LeftHand 7.144217 -0.000000 5.132966
LeftHandThumb1 -26.253704 0.000000 33.147579
RightShoulder -15.350720 -8.030899 -9.006494
RightArm 1.145565 -32.067276 88.129795
RightForeArm -23.331900 -0.000000 29.755303
RightHand -14.639384 -0.000000 10.328481
RightHandThumb1 -24.326973 -0.000000 -32.862282
LeftUpLeg -8.602578 2.428198 -1.846966
LeftLeg 11.131216 -0.000000 -0.000000
LeftFoot -23.715920 19.987602 -19.302754
LeftToeBase 9.655199 -0.000000 -0.000000
RightUpLeg -8.983948 0.074497 1.108930
RightLeg 9.054906 -0.000000 -0.000000
RightFoot -13.286481 -6.330941 9.972682
RightToeBase -0.102184 -0.000000 0.000000
2100
root -5.125772 31.959566 -0.729214 8.289099 8.338100 -2.496496
Spine -4.012623 -11.042674 -3.590086
Head -2.458805 4.483535 15.803441
LeftShoulder -15.592358 16.281969 13.426518
LeftArm 21.952685 -28.940504 -80.782465
LeftForeArm 123.428976 -0.000000 132.601428
LeftHand 7.103134 0.000000 5.150610
LeftHandThumb1 -26.253704 0.000000 33.147579
RightShoulder -15.354684 -8.013669 -8.998301
RightArm 1.095284 -32.058745 88.170032
RightForeArm -23.133265 -0.000000 29.678366
RightHand -14.724706 -0.000000 10.170487
RightHandThumb1 -24.326973 -0.000000 -32.862282
LeftUpLeg -8.528856 2.462676 -1.878314
LeftLeg 11.039637 -0.000000 -0.000000
LeftFoot -23.690459 20.013670 -19.286450
LeftToeBase 9.607137 -0.000000 -0.000000
RightUpLeg -8.920322 0.041136 1.101943
RightLeg 8.982759 -0.000000 -0.000000
RightFoot -13.243780 -6.362870 9.657658
RightToeBase -0.420729 -0.000000 0.000000
2101
root -5.141322 31.957215 -0.719562 8.310409 8.279774 -2.446422
Spine -4.057302 -11.053130 -3.601209
Head -2.358319 4.525050 15.734948
LeftShoulder -15.644915 16.284572 13.378456
LeftArm 21.944426 -28.949984 -80.771964
LeftForeArm 123.455523 0.000000 132.573488
LeftHand 7.158652 -0.000000 5.205239
LeftHandThumb1 -26.253704 0.000000 33.147579
RightShoulder -15.385581 -8.067092 -8.979271
RightArm 1.155080 -32.135458 88.161834
RightForeArm -22.766840 0.000000 29.557473
RightHand -14.823150 -0.000000 9.823676
RightHandThumb1 -24.326973 -0.000000 -32.862282
LeftUpLeg -8.481287 2.486879 -1.900898
LeftLeg 10.951998 -0.000000 -0.000000
LeftFoot -23.677725 20.030579 -19.299353
LeftToeBase 9.685325 -0.000000 -0.000000
RightUpLeg -8.880297 0.052318 1.090207
RightLeg 8.880038 -0.000000 -0.000000
RightFoot -13.340295 -6.364670 9.769046
RightToeBase -0.051468 -0.000000 0.000000
2102
root -5.157489 31.954976 -0.708936 8.318887 8.218024 -2.390820
Spine -4.090864 -11.032192 -3.632075
Head -2.252693 4.546015 15.681290
LeftShoulder -15.652764 16.291254 13.348405
LeftArm 21.932982 -28.956312 -80.769666
LeftForeArm 123.446968 -0.000000 132.567121
LeftHand 7.175806 -0.000000 5.139646
LeftHandThumb1 -26.253704 0.000000 33.147579
RightShoulder -15.410087 -8.086584 -8.943055
RightArm 1.128288 -32.090239 88.171800
RightForeArm -22.705692 -0.000000 29.498504
RightHand -14.854796 -0.000000 9.845550
RightHandThumb1 -24.326973 -0.000000 -32.862282
LeftUpLeg -8.418528 2.539818 -1.932371
LeftLeg 10.857714 -0.000000 -0.000000
LeftFoot -23.668365 20.043205 -19.309748
LeftToeBase 9.688331 -0.000000 -0.000000
RightUpLeg -8.802305 0.106024 1.069098
RightLeg 8.740581 -0.000000 -0.000000
RightFoot -13.279519 -6.436644 9.504337
RightToeBase -0.295977 -0.000000 0.000000
2103
root -5.172481 31.951674 -0.700581 8.336567 8.162645 -2.323802
Spine -4.125022 -11.014825 -3.673651
Head -2.176246 4.585753 15.615380
LeftShoulder -15.670814 16.311852 13.318155
LeftArm 21.953076 -28.945602 -80.773433
LeftForeArm 123.510563 0.000000 132.544978
LeftHand 7.134901 -0.000000 5.192061
LeftHandThumb1 -26.253704 0.000000 33.147579
RightShoulder -15.433867 -8.104314 -8.916096
RightArm 1.093761 -32.032246 88.182279
RightForeArm -22.700595 -0.000000 29.465260
RightHand -14.757555 0.000000 9.887869
RightHandThumb1 -24.326973 -0.000000 -32.862282
LeftUpLeg -8.370612 2.587086 -1.975224
LeftLeg 10.769730 -0.000000 -0.000000
LeftFoot -23.631020 20.052089 -19.294168
LeftToeBase 9.677385 -0.000000 -0.000000
RightUpLeg -8.757485 0.089396 1.038778
RightLeg 8.633821 -0.000000 -0.000000
RightFoot -13.357585 -6.442914 9.533328
RightToeBase -0.100938 -0.000000 0.000000
2104
root -5.187826 31.949832 -0.693091 8.362590 8.108362 -2.269201
Spine -4.173125 -11.038227 -3.679807
Head -2.071670 4.650618 15.508399
LeftShoulder -15.714488 16.311299 13.257585
LeftArm 21.925407 -28.975807 -80.752733
LeftForeArm 123.572414 -0.000000 132.524486
LeftHand 7.109315 0.000000 5.251558
LeftHandThumb1 -26.253704 0.000000 33.147579
RightShoulder -15.422282 -8.150690 -8.896219
RightArm 1.115099 -31.976977 88.176097
RightForeArm -22.648349 -0.000000 29.403388
RightHand -14.811188 -0.000000 9.815320
RightHandThumb1 -24.326973 -0.000000 -32.862282
LeftUpLeg -8.340777 2.629261 -2.003873
LeftLeg 10.696262 -0.000000 -0.000000
LeftFoot -23.596151 20.045951 -19.289796
LeftToeBase 9.650193 -0.000000 -0.000000
RightUpLeg -8.721644 0.108033 1.017245
RightLeg 8.529863 -0.000000 -0.000000
RightFoot -13.375896 -6.463818 9.479810
RightToeBase -0.041657 -0.000000 0.000000
